# xmcd CD database file
#
# Track frame offsets:
#	150
#	16800
#	35222
#	55050
#	77002
#	126510
#	143479
#	163725
#	180000
#	201891
#	227325
#	262935
#	291722
#
# Disc length: 4240 seconds
#
# Revision: 0
# Processed by: cddbd v1.5.1PL0 Copyright (c) Steve Scherf et al.
# Submitted via: CDex 1.51
#
DISCID=ad108e0d
DTITLE=Various Artist - New Age and New Sounds
DYEAR=1900
DGENRE=New Age
TTITLE0=Ganesha - Jaya Jaya Suravarpoojit Jitdanavkalabh
TTITLE1=Indaco - Aran
TTITLE2=Idir - A Vava Inouva 2
TTITLE3=Re-Orient with Baluji Shrivastav - Bulbublues
TTITLE4=Nautilus - Morning Dawn
TTITLE5=Casino Versus Japan - Single Variation Of Two
TTITLE6=Rita Marcotulli - Koiné
TTITLE7=Ferenc Snétberger and Marcus Stockhausen - Gond Nélkül
TTITLE8=Al Ventura - Dolce Giornata
TTITLE9=Nautilus - The Fog Dance
TTITLE10=Juryman - Escape To Where
TTITLE11=Novecento - Leaving Now
TTITLE12=Antonio Breschi - Kabilian Barna
EXTD=
EXTT0=
EXTT1=
EXTT2=
EXTT3=
EXTT4=
EXTT5=
EXTT6=
EXTT7=
EXTT8=
EXTT9=
EXTT10=
EXTT11=
EXTT12=
PLAYORDER=
